<?xml version="1.0" standalone="no"?>
<!DOCTYPE svg PUBLIC "-//W3C//DTD SVG 20010904//EN"
 "http://www.w3.org/TR/2001/REC-SVG-20010904/DTD/svg10.dtd">
<svg version="1.0" xmlns="http://www.w3.org/2000/svg"
 width="700.000000pt" height="700.000000pt" viewBox="0 0 700.000000 700.000000"
 preserveAspectRatio="xMidYMid meet">
<metadata>
Created by potrace 1.14, written by Peter Selinger 2001-2017
</metadata>
<g transform="translate(0.000000,700.000000) scale(0.100000,-0.100000)"
fill="#000000" stroke="none">
<path d="M3455 6750 c-16 -4 -46 -15 -65 -25 -45 -23 -1231 -1209 -1255 -1255
-25 -48 -26 -152 -1 -202 21 -43 1187 -1215 1250 -1257 34 -22 50 -26 116 -26
66 0 82 4 116 26 64 42 1229 1214 1250 1256 23 49 25 135 5 187 -12 32 -152
177 -621 647 -389 391 -620 614 -646 627 -45 23 -104 31 -149 22z m457 -970
c358 -357 409 -412 397 -426 -31 -37 -802 -804 -809 -804 -6 0 -782 771 -812
807 -8 10 84 107 398 423 225 225 411 409 413 410 2 0 188 -184 413 -410z"/>
<path d="M1537 4865 c-62 -29 -1244 -1210 -1271 -1269 -26 -56 -24 -141 4
-197 16 -30 214 -236 629 -650 567 -567 609 -607 659 -623 60 -20 121 -17 177
9 39 19 1214 1188 1254 1249 22 34 26 50 26 116 0 66 -4 82 -26 116 -43 64
-1207 1223 -1253 1246 -59 30 -141 32 -199 3z m511 -955 l409 -410 -409 -410
c-226 -225 -413 -410 -415 -410 -3 0 -190 184 -415 410 l-411 410 409 409
c225 226 412 410 415 411 4 0 191 -184 417 -410z"/>
<path d="M5315 4883 c-58 -13 -129 -80 -688 -638 -444 -444 -612 -618 -628
-651 -18 -37 -21 -57 -16 -107 3 -34 12 -76 21 -94 25 -47 1218 -1237 1263
-1259 48 -23 136 -25 188 -5 54 21 1241 1203 1275 1270 30 60 30 141 0 201
-33 64 -1211 1243 -1266 1266 -40 17 -115 26 -149 17z m468 -973 l410 -410
-411 -410 c-225 -226 -412 -410 -415 -410 -12 0 -817 814 -814 823 5 15 800
814 811 816 5 0 193 -184 419 -409z"/>
<path d="M3427 3010 c-16 -5 -43 -20 -60 -33 -55 -42 -1199 -1190 -1225 -1230
-31 -46 -37 -139 -13 -201 12 -32 150 -176 621 -647 407 -408 619 -613 648
-628 59 -30 145 -30 203 0 30 15 237 215 650 628 532 532 607 612 621 653 20
57 17 131 -6 181 -20 40 -1186 1214 -1248 1255 -41 27 -141 39 -191 22z m471
-951 c208 -207 388 -388 401 -403 l24 -25 -411 -412 -412 -411 -411 411 c-227
226 -410 414 -408 416 2 3 186 189 409 413 306 308 408 405 418 398 8 -5 183
-179 390 -387z"/>
</g>
</svg>
